# xmcd
#
# Track frame offsets:
#	150
#	21934
#	49640
#	85449
#	121315
#	142025
#	165617
#	205421
#
# Disc length: 3386 seconds
#
# Revision: 1
# Processed by: cddbd v1.5.2PL0 Copyright (c) Steve Scherf et al.
# Submitted via: audiograbber 1.83.01
#
DISCID=6e0d3808
DTITLE=Mark Knopfler - Live in Amsterdam 2010
DYEAR=2010
DGENRE=Rock
TTITLE0=Border River
TTITLE1=What it Is
TTITLE2=Sailing to Philadelphia
TTITLE3=Coyote
TTITLE4=Prairie Wedding
TTITLE5=Hill Farmer's Blues
TTITLE6=Romeo and Juliet
TTITLE7=Sultans of Swing
EXTD=
EXTT0=
EXTT1=
EXTT2=
EXTT3=
EXTT4=
EXTT5=
EXTT6=
EXTT7=
PLAYORDER=
